# xmcd CD database file
#
# Track frame offsets:
#	150
#	19487
#	52637
#	67187
#	83012
#	116762
#	148937
#	172637
#	192512
#	211262
#	219962
#	224462
#	229412
#	239612
#	248237
#	267887
#	276662
#	298487
#	306512
#
# Disc length: 4293 seconds
#
# Revision: 0
# Processed by: cddbd v1.5.2PL0 Copyright (c) Steve Scherf et al.
# Submitted via: CDex 1.70beta2
#
DISCID=3810c313
DTITLE=Gary Schocker - airborne
DYEAR=1998
DGENRE=Jazz
TTITLE0=cafe music
TTITLE1=chanson
TTITLE2=dans le pays
TTITLE3=vocalise
TTITLE4=airborne
TTITLE5=topiary
TTITLE6=nightblooming
TTITLE7=troll garden
TTITLE8=in memoriam
TTITLE9=andante cantabile
TTITLE10=fierce
TTITLE11=allegretto
TTITLE12=larghetto
TTITLE13=bouree
TTITLE14=soliloquy
TTITLE15=easy going
TTITLE16=moody
TTITLE17=cofee nerves
TTITLE18=sleep song
EXTD=YEAR: 1998
EXTT0=
EXTT1=
EXTT2=
EXTT3=
EXTT4=
EXTT5=
EXTT6=
EXTT7=
EXTT8=
EXTT9=
EXTT10=
EXTT11=
EXTT12=
EXTT13=
EXTT14=
EXTT15=
EXTT16=
EXTT17=
EXTT18=
PLAYORDER=
